<?xml version="1.0" encoding="utf-8"?>
<!-- Generator: Adobe Illustrator 18.1.1, SVG Export Plug-In . SVG Version: 6.00 Build 0)  -->
<svg version="1.1" id="Layer_1" xmlns="http://www.w3.org/2000/svg" xmlns:xlink="http://www.w3.org/1999/xlink" x="0px" y="0px"
	 viewBox="0 0 178.2 53.6" enable-background="new 0 0 178.2 53.6" xml:space="preserve">
<path fill="#EF1A21" d="M6.5,10.4h2.8l0.6,6.8h-4L6.5,10.4z M9.3,9.1H6.5H5.3l-0.1,1.2l-0.6,6.8l-0.1,1.4h1.4h4h1.4l-0.1-1.4
	l-0.6-6.8l-0.1-1.2H9.3z M3.9,7.3h8L13.6,25h-1.7l-0.3-3.6l-0.1-1.2h-1.2H5.5H4.3l-0.1,1.2L3.9,25H2.1L3.9,7.3z M2.7,6l-2,20.3h4.3
	l0.4-4.8h4.8l0.4,4.8H15L13.1,6H2.7z"/>
<path fill="#EF1A21" d="M28.7,7.3V11h-1.7v-0.7V9.1h-1.3h-4.9h-1.3v1.3V22v1.3h1.3h4.9h1.3V22v-0.7h1.7V25h-11V7.3H28.7z M30,6H16.4
	v20.3H30V20h-4.3v2h-4.9V10.4h4.9v2H30V6z"/>
<path fill="#EF1A21" d="M42.4,6.6v1.7v1.3h1.3h6.2v12.9h-6.2h-1.3v1.3V26h-1.7v-2.1v-1.3h-1.3h-6.2V9.7h6.2h1.3V8.4V6.6H42.4z
	 M42.3,21.1h1.3h3.3h1.3v-1.3v-7.4v-1.3h-1.3h-3.3h-1.3v1.3v7.4V21.1 M34.9,21.1h1.3h3.3h1.3v-1.3v-7.4v-1.3h-1.3h-3.3h-1.3v1.3v7.4
	V21.1 M43.7,5.3h-4.3v3h-7.5v15.5h7.5v3.4h4.3v-3.4h7.5V8.4h-7.5V5.3z M43.6,12.4h3.3v7.4h-3.3V12.4z M36.2,12.4h3.3v7.4h-3.3V12.4z
	"/>
<path fill="#EF1A21" d="M62.8,7.3L64.5,25h-1.7l-0.3-3.6l-0.1-1.2h-1.2h-4.8h-1.2l-0.1,1.2L54.8,25h-1.7l1.7-17.7H62.8z M55.4,18.5
	h1.4h4h1.4l-0.1-1.4l-0.6-6.8l-0.1-1.2h-1.2h-2.8h-1.2l-0.1,1.2l-0.6,6.8L55.4,18.5 M64,6H53.6l-2,20.3H56l0.4-4.8h4.8l0.4,4.8H66
	L64,6z M56.8,17.2l0.6-6.8h2.8l0.6,6.8H56.8z"/>
<path fill="#EF1A21" d="M79.2,7.3V25h-1.7V10.4V9.1h-1.3h-3.1H72l-0.1,1.1L70,25h-2.7v-1.7h0.3h1.2l0.1-1.2l1.7-14.8H79.2z M80.5,6
	H69.3L67.5,22H66v4.3h5.2l2-15.9h3.1v15.9h4.3V6z"/>
<path fill="#EF1A21" d="M85.9,7.3v6.1v1.3h1.3h7.7V25H84.2V10.4v-3H85.9z M85.9,23.3h1.3h4.6h1.3V22v-4.1v-1.3h-1.3h-4.6h-1.3v1.3
	V22V23.3 M87.2,6h-4.3v4.3v15.9h13.3V13.5h-9V6z M87.2,17.8h4.6V22h-4.6V17.8z"/>
<path fill="#EF1A21" d="M106.4,7.3v1.7h-3.3h-1.3v1.3V25H100V10.4V9.1h-1.3h-3.3V7.3H106.4z M107.7,6H94.1v4.3h4.6v15.9h4.3V10.4
	h4.6V6z"/>
<path fill="#EF1A21" d="M120.8,25h-11V7.3h11V25z M111.5,23.3h1.3h4.9h1.3V22V10.4V9.1h-1.3h-4.9h-1.3v1.3V22V23.3 M122.1,6h-13.6
	v20.3h13.6V6z M112.8,10.4h4.9V22h-4.9V10.4z"/>
<path fill="#EF1A21" d="M136.7,7.3v6.2l-2,1.6l-1.3,1l1.3,1l2,1.6V25h-11V7.3H136.7z M127.4,15.4h1.3h3.4h0.5l0.4-0.4l1.6-1.5
	l0.4-0.4v-0.6v-2.3V9.1h-1.3h-4.9h-1.3v1.3v3.8V15.4 M127.4,23.3h1.3h4.9h1.3V22v-2.3v-0.6l-0.4-0.4l-1.6-1.5l-0.4-0.4h-0.5h-3.4
	h-1.3v1.3V22V23.3 M138,6h-13.6v20.3H138v-8.1l-2.5-2l2.5-2V6z M128.7,14.1v-3.8h4.9v2.3l-1.6,1.5H128.7z M128.7,22v-3.8h3.4
	l1.6,1.5V22H128.7z"/>
<path fill="#EF1A21" d="M159.5,25h-1.7V7.3h1.7V25z M143.3,7.3v6.1v1.3h1.3h7.7V25h-10.7V10.4v-3H143.3 M143.3,23.3h1.3h4.6h1.3V22
	v-4.1v-1.3h-1.3h-4.6h-1.3v1.3V22V23.3 M160.8,6h-4.3v20.3h4.3V6z M144.6,6h-4.3v4.3v15.9h13.3V13.5h-9V6z M144.6,17.8h4.6V22h-4.6
	V17.8z"/>
<path fill="#EF1A21" d="M172.7,3h-4.6V2h4.6V3z M176.3,7.3V25h-1.7V14.2V8.4l-2.5,5.2L166.7,25h-2.2V10.4v-3h1.7v10.8v5.8l2.5-5.2
	l5.4-11.4H176.3 M174,0.7h-7.2v3.6h7.2V0.7z M177.6,6h-4.3l-5.7,12.1V6h-4.3v4.3v15.9h4.3l5.7-12.1v12.1h4.3V6z"/>
<g>
	<defs>
		<rect id="SVGID_1_" y="0" width="178.2" height="53.6"/>
	</defs>
	<clipPath id="SVGID_2_">
		<use xlink:href="#SVGID_1_"  overflow="visible"/>
	</clipPath>
	<path clip-path="url(#SVGID_2_)" fill="#EF1A21" d="M89.7,39.6c0.6-0.1,1.2-0.3,1.5-0.7c0.4-0.4,0.6-0.9,0.6-1.5
		c0-0.6-0.2-1-0.5-1.4c-0.3-0.4-0.8-0.6-1.4-0.7c-0.4,0-1.4-0.1-3.2-0.1h-2.2v4.3H87C88.5,39.7,89.4,39.6,89.7,39.6"/>
	<path clip-path="url(#SVGID_2_)" fill="#EF1A21" d="M90.9,43c-0.5-0.2-1.6-0.3-3.3-0.3h-3v5H88c1.4,0,2.2,0,2.6-0.1
		c0.6-0.1,1-0.3,1.4-0.7c0.4-0.4,0.5-0.9,0.5-1.6c0-0.6-0.1-1-0.4-1.4C91.8,43.5,91.4,43.2,90.9,43"/>
	<polygon clip-path="url(#SVGID_2_)" fill="#EF1A21" points="45.9,43.5 51,43.5 48.4,36.6 	"/>
	<path clip-path="url(#SVGID_2_)" fill="#EF1A21" d="M128,35.1c-1.6,0-2.8,0.5-3.8,1.6c-0.9,1.1-1.4,2.7-1.4,4.8
		c0,2.1,0.5,3.7,1.5,4.8c1,1.1,2.2,1.6,3.7,1.6c1.5,0,2.7-0.5,3.7-1.6c1-1.1,1.4-2.7,1.4-4.9c0-2.1-0.5-3.7-1.4-4.8
		C130.8,35.7,129.6,35.1,128,35.1"/>
	<path clip-path="url(#SVGID_2_)" fill="#EF1A21" d="M0.6,29.1v24.5h158v-5.8h1.6c0.8-1.6,1.3-3.4,1.5-5.6c0.2-2.1,0.4-4.8,0.4-8v-2
		h12.9v15.5h1.6v5.8h1.6V29.1H0.6z M15.2,49.7c-1.2,1-3,1.5-5.4,1.5c-1.9,0-3.5-0.3-4.6-1c-1.1-0.6-2-1.9-2.5-3.6l3.4-1.1
		c0.4,1.1,0.8,1.8,1.4,2.2c0.6,0.3,1.3,0.5,2.2,0.5c1.2,0,2.1-0.3,2.6-0.8c0.5-0.5,0.8-1.1,0.8-1.8c0-0.8-0.3-1.4-0.9-1.8
		c-0.6-0.5-1.5-0.7-2.8-0.7H8.5v-2.8H9c1.2,0,2-0.3,2.6-0.8c0.6-0.5,0.9-1.2,0.9-2.1c0-0.7-0.2-1.3-0.7-1.7
		c-0.5-0.5-1.2-0.7-2.1-0.7c-1.6,0-2.6,0.8-3,2.3L3,36.5c0.8-3,3-4.6,6.7-4.6c2.2,0,3.8,0.5,5,1.4c1.1,1,1.7,2.1,1.7,3.4
		c0,0.9-0.3,1.7-0.8,2.4c-0.5,0.7-1.3,1.3-2.3,1.9c1.2,0.4,2.2,1,2.8,1.8c0.6,0.8,0.9,1.7,0.9,2.9C17,47.4,16.4,48.7,15.2,49.7
		 M53.8,50.9l-1.6-4.2h-7.5l-1.5,4.2h-4l7.3-18.6h4l7.5,18.6H53.8z M95.8,48c-0.4,0.8-0.9,1.4-1.6,1.9c-0.7,0.5-1.5,0.8-2.5,0.9
		c-0.6,0.1-2.1,0.1-4.5,0.1h-6.3V32.3h7.5c1.5,0,2.6,0.1,3.3,0.2c0.7,0.1,1.4,0.4,1.9,0.8c0.6,0.4,1,0.9,1.4,1.6
		c0.4,0.6,0.6,1.4,0.6,2.2c0,0.9-0.2,1.7-0.7,2.4c-0.5,0.7-1.1,1.3-1.9,1.6c1.1,0.3,2,0.9,2.6,1.7s0.9,1.7,0.9,2.8
		C96.4,46.3,96.2,47.2,95.8,48 M134.6,48.7c-1.6,1.7-3.8,2.5-6.6,2.5c-2.8,0-5-0.8-6.6-2.5c-1.6-1.7-2.5-4-2.5-7
		c0-1.9,0.3-3.5,0.9-4.8c0.4-1,1-1.8,1.7-2.6c0.7-0.8,1.5-1.3,2.4-1.7c1.2-0.5,2.5-0.7,4-0.7c2.7,0,4.9,0.9,6.6,2.6s2.5,4.1,2.5,7.1
		C137.1,44.6,136.3,47,134.6,48.7"/>
	<rect x="161.7" y="50.9" clip-path="url(#SVGID_2_)" fill="#EF1A21" width="11.7" height="2.7"/>
	<path clip-path="url(#SVGID_2_)" fill="#EF1A21" d="M165.6,35.4c0,5.7-0.5,9.8-1.5,12.4h7.1V35.4H165.6z"/>
</g>
</svg>
