<?xml version="1.0" encoding="utf-8"?>
<!-- Generator: Adobe Illustrator 18.1.1, SVG Export Plug-In . SVG Version: 6.00 Build 0)  -->
<svg version="1.1" id="Слой_1" xmlns="http://www.w3.org/2000/svg" xmlns:xlink="http://www.w3.org/1999/xlink" x="0px" y="0px"
	 viewBox="0 0 141.8 125.3" enable-background="new 0 0 141.8 125.3" xml:space="preserve">
<g>
	<path fill="#333333" d="M25.3,106.7h1c-0.1,0.9-0.4,1.5-0.9,2.1c-0.5,0.5-1.3,0.8-2.3,0.8c-1.1,0-2-0.4-2.6-1.1c-0.6-0.7-1-1.7-1-3
		c0-1.3,0.3-2.4,0.9-3.2c0.6-0.8,1.5-1.2,2.7-1.2c1,0,1.7,0.2,2.2,0.7c0.5,0.5,0.8,1.1,0.9,2h-1c-0.1-0.6-0.3-1-0.6-1.3
		c-0.4-0.3-0.9-0.5-1.5-0.5c-0.8,0-1.4,0.3-1.8,0.9c-0.4,0.6-0.6,1.4-0.6,2.5c0,0.9,0.2,1.7,0.7,2.3c0.5,0.6,1.1,0.9,1.9,0.9
		c0.6,0,1.1-0.2,1.5-0.6C25,107.7,25.3,107.3,25.3,106.7L25.3,106.7z M29.3,102.3h-2.5v-0.9h5.9v0.9h-2.5v7h-1V102.3L29.3,102.3z
		 M33.8,101.4h3.1c0.8,0,1.4,0.2,1.9,0.6c0.4,0.4,0.7,0.9,0.7,1.7c0,0.9-0.2,1.5-0.7,1.9c-0.5,0.4-1.1,0.6-2,0.6h-2v3.2h-1V101.4
		L33.8,101.4z M34.9,102.3v3h1.9c0.6,0,1-0.1,1.3-0.4c0.3-0.3,0.4-0.7,0.4-1.2c0-0.5-0.1-0.8-0.4-1.1c-0.3-0.2-0.7-0.3-1.3-0.3H34.9
		L34.9,102.3z M40.3,105.3c0-1.3,0.3-2.4,1-3.1c0.7-0.7,1.5-1.1,2.6-1.1c1.1,0,2,0.4,2.6,1.1c0.7,0.7,1,1.8,1,3.1
		c0,1.3-0.3,2.3-1,3.1c-0.6,0.8-1.5,1.1-2.7,1.1c-1.2,0-2.1-0.4-2.7-1.1C40.6,107.7,40.3,106.6,40.3,105.3L40.3,105.3z M41.4,105.3
		c0,1.1,0.2,1.9,0.7,2.5c0.4,0.6,1.1,0.8,1.9,0.8c0.7,0,1.4-0.3,1.8-0.8c0.5-0.5,0.7-1.4,0.7-2.5c0-1-0.2-1.8-0.6-2.4
		c-0.4-0.6-1.1-0.9-1.9-0.9c-0.8,0-1.5,0.3-1.9,0.9C41.6,103.5,41.4,104.3,41.4,105.3L41.4,105.3z M49.9,107.8l4-6.4h1v7.9h-1v-6.4
		l-4,6.4h-1v-7.9h1V107.8L49.9,107.8z M50.1,99.6h0.8c0,0.3,0.1,0.5,0.3,0.7c0.2,0.2,0.4,0.2,0.7,0.2c0.3,0,0.5-0.1,0.7-0.2
		c0.2-0.2,0.3-0.4,0.3-0.7h0.8c-0.1,0.5-0.3,0.9-0.6,1.1c-0.3,0.3-0.7,0.4-1.2,0.4c-0.5,0-0.9-0.1-1.2-0.4
		C50.4,100.4,50.2,100.1,50.1,99.6L50.1,99.6z M60.3,109.3l-2.5-6.7h0l0,0.3v6.3h-1v-7.9h1.5l2.4,6.5l2.4-6.5h1.5v7.9h-1V103l0-0.3
		h0l-2.5,6.7H60.3L60.3,109.3z M67.3,107.3l-0.7,2h-1.1l2.9-7.9h1.1l2.9,7.9h-1.1l-0.7-2H67.3L67.3,107.3z M67.6,106.4h2.6l-1.3-3.9
		L67.6,106.4L67.6,106.4z M74.8,102.3h-2.5v-0.9h5.9v0.9h-2.5v7h-1V102.3L74.8,102.3z M80.4,104.8h4v0.9h-4v2.7h4.5v0.9h-5.5v-7.9
		h5.4v0.9h-4.4V104.8L80.4,104.8z M86,101.4h3.1c0.8,0,1.4,0.2,1.9,0.6c0.4,0.4,0.7,0.9,0.7,1.7c0,0.9-0.2,1.5-0.7,1.9
		c-0.5,0.4-1.1,0.6-2,0.6h-2v3.2h-1V101.4L86,101.4z M87,102.3v3h1.9c0.6,0,1-0.1,1.3-0.4c0.3-0.3,0.4-0.7,0.4-1.2
		c0-0.5-0.1-0.8-0.4-1.1c-0.3-0.2-0.7-0.3-1.3-0.3H87L87,102.3z M93.9,107.8l4-6.4h1v7.9h-1v-6.4l-4,6.4h-1v-7.9h1V107.8L93.9,107.8
		z M101.6,107.3l-0.7,2h-1.1l2.9-7.9h1.1l2.9,7.9h-1.1l-0.7-2H101.6L101.6,107.3z M101.9,106.4h2.6l-1.3-3.9L101.9,106.4
		L101.9,106.4z M106.7,109.3v-0.9c0.6,0.1,1-0.1,1.3-0.8c0.3-0.6,0.4-1.6,0.4-2.8v-3.4h4.7v7.9h-1v-7h-2.7v2.7
		c0,1.6-0.2,2.7-0.7,3.4C108.3,109.2,107.6,109.5,106.7,109.3L106.7,109.3z M116.1,101.4v3.2h2.2c0.8,0,1.4,0.2,1.8,0.6
		c0.4,0.4,0.6,1,0.6,1.7c0,0.8-0.2,1.3-0.6,1.7c-0.4,0.4-1,0.6-1.8,0.6h-3.2v-7.9H116.1L116.1,101.4z M116.1,105.5v2.9h2
		c0.5,0,0.9-0.1,1.1-0.4c0.3-0.3,0.4-0.6,0.4-1.1c0-0.5-0.1-0.8-0.4-1.1c-0.3-0.2-0.8-0.4-1.7-0.4H116.1L116.1,105.5z M121.5,101.4
		h1v7.9h-1V101.4L121.5,101.4z M30.6,122.5h1c-0.1,0.9-0.4,1.5-0.9,2.1c-0.5,0.5-1.3,0.8-2.3,0.8c-1.1,0-2-0.4-2.6-1.1
		c-0.6-0.7-1-1.7-1-3c0-1.3,0.3-2.4,0.9-3.2c0.6-0.8,1.5-1.2,2.7-1.2c1,0,1.7,0.2,2.2,0.7c0.5,0.5,0.8,1.1,0.9,2h-1
		c-0.1-0.6-0.3-1-0.6-1.3c-0.4-0.3-0.9-0.5-1.5-0.5c-0.8,0-1.4,0.3-1.8,0.9c-0.4,0.6-0.6,1.4-0.6,2.5c0,0.9,0.2,1.7,0.7,2.3
		c0.5,0.6,1.1,0.9,1.9,0.9c0.6,0,1.1-0.2,1.5-0.6C30.4,123.5,30.6,123.1,30.6,122.5L30.6,122.5z M34.7,118.1h-2.5v-0.9h5.9v0.9h-2.5
		v7h-1V118.1L34.7,118.1z M39.2,117.2h3.1c0.8,0,1.4,0.2,1.9,0.6c0.4,0.4,0.7,0.9,0.7,1.7c0,0.9-0.2,1.5-0.7,1.9
		c-0.5,0.4-1.1,0.6-2,0.6h-2v3.2h-1V117.2L39.2,117.2z M40.2,118.1v3h1.9c0.6,0,1-0.1,1.3-0.4c0.3-0.3,0.4-0.7,0.4-1.2
		c0-0.5-0.1-0.8-0.4-1.1c-0.3-0.2-0.7-0.3-1.3-0.3H40.2L40.2,118.1z M45.7,121.2c0-1.3,0.3-2.4,1-3.1c0.7-0.7,1.5-1.1,2.6-1.1
		c1.1,0,2,0.4,2.6,1.1c0.7,0.7,1,1.8,1,3.1c0,1.3-0.3,2.3-1,3.1c-0.6,0.7-1.5,1.1-2.7,1.1c-1.2,0-2-0.4-2.7-1.1
		C46,123.5,45.7,122.4,45.7,121.2L45.7,121.2z M46.7,121.2c0,1.1,0.2,1.9,0.7,2.5c0.4,0.6,1.1,0.8,1.9,0.8c0.7,0,1.4-0.3,1.8-0.8
		c0.5-0.5,0.7-1.4,0.7-2.5c0-1-0.2-1.8-0.6-2.4c-0.4-0.6-1.1-0.9-1.9-0.9c-0.8,0-1.5,0.3-1.9,0.9C47,119.4,46.7,120.2,46.7,121.2
		L46.7,121.2z M55.3,123.6l4-6.4h1v7.9h-1v-6.4l-4,6.4h-1v-7.9h1V123.6L55.3,123.6z M63.9,118.1h-2.5v-0.9h5.9v0.9h-2.5v7h-1V118.1
		L63.9,118.1z M69.4,120.6h4v0.9h-4v2.7h4.5v0.9h-5.5v-7.9h5.4v0.9h-4.4V120.6L69.4,120.6z M74.2,125.1v-0.9c0.6,0.1,1-0.1,1.3-0.8
		c0.3-0.6,0.4-1.6,0.4-2.8v-3.4h4.7v7.9h-1v-7H77v2.7c0,1.6-0.2,2.7-0.7,3.4C75.8,125,75.1,125.3,74.2,125.1L74.2,125.1z
		 M83.6,117.2v3.2h2.2c0.8,0,1.4,0.2,1.8,0.6c0.4,0.4,0.6,1,0.6,1.7c0,0.7-0.2,1.3-0.6,1.7c-0.4,0.4-1,0.6-1.8,0.6h-3.2v-7.9H83.6
		L83.6,117.2z M83.6,121.3v2.9h2.1c0.4,0,0.8-0.1,1.1-0.4c0.3-0.2,0.4-0.6,0.5-1.1c0-0.5-0.1-0.8-0.4-1.1c-0.3-0.2-0.7-0.4-1.3-0.4
		H83.6L83.6,121.3z M94.8,122.5h1c-0.1,0.9-0.4,1.5-0.9,2.1c-0.5,0.5-1.3,0.8-2.3,0.8c-1.1,0-2-0.4-2.6-1.1c-0.6-0.7-1-1.7-1-3
		c0-1.3,0.3-2.4,0.9-3.2c0.6-0.8,1.5-1.2,2.7-1.2c1,0,1.7,0.2,2.2,0.7c0.5,0.5,0.8,1.1,0.9,2h-1c-0.1-0.6-0.3-1-0.6-1.3
		c-0.4-0.3-0.9-0.5-1.5-0.5c-0.8,0-1.4,0.3-1.8,0.9c-0.4,0.6-0.6,1.4-0.6,2.5c0,0.9,0.2,1.7,0.7,2.3c0.5,0.6,1.1,0.9,1.9,0.9
		c0.6,0,1.1-0.2,1.5-0.6C94.6,123.5,94.8,123.1,94.8,122.5L94.8,122.5z M98.8,118.1h-2.5v-0.9h5.9v0.9h-2.5v7h-1V118.1L98.8,118.1z
		 M103.4,117.2h3.3c0.8,0,1.3,0.2,1.7,0.5c0.4,0.4,0.6,0.8,0.6,1.5c0,0.4-0.1,0.8-0.4,1.1c-0.2,0.3-0.5,0.5-0.9,0.6v0
		c0.5,0.1,0.8,0.3,1.1,0.6c0.3,0.3,0.4,0.8,0.4,1.4c0,0.7-0.2,1.3-0.7,1.7c-0.5,0.4-1.1,0.6-2,0.6h-3.2V117.2L103.4,117.2z
		 M104.4,118.1v2.5h2c0.5,0,0.8-0.1,1.1-0.3c0.3-0.2,0.4-0.5,0.4-0.9c0-0.4-0.1-0.7-0.4-0.9c-0.2-0.2-0.6-0.3-1.1-0.3H104.4
		L104.4,118.1z M104.4,121.4v2.8h2.1c0.6,0,1-0.1,1.3-0.3c0.3-0.2,0.4-0.6,0.4-1.1c0-0.4-0.1-0.8-0.4-1c-0.3-0.2-0.7-0.4-1.3-0.4
		H104.4L104.4,121.4z M110.4,121.2c0-1.3,0.3-2.4,1-3.1c0.7-0.7,1.5-1.1,2.6-1.1c1.1,0,2,0.4,2.6,1.1c0.7,0.7,1,1.8,1,3.1
		c0,1.3-0.3,2.3-1,3.1c-0.6,0.7-1.5,1.1-2.7,1.1c-1.2,0-2.1-0.4-2.7-1.1C110.7,123.5,110.4,122.4,110.4,121.2L110.4,121.2z
		 M111.4,121.2c0,1.1,0.2,1.9,0.7,2.5c0.4,0.6,1.1,0.8,1.9,0.8c0.7,0,1.4-0.3,1.8-0.8c0.5-0.5,0.7-1.4,0.7-2.5c0-1-0.2-1.8-0.6-2.4
		c-0.4-0.6-1.1-0.9-1.9-0.9c-0.8,0-1.5,0.3-1.9,0.9C111.7,119.4,111.4,120.2,111.4,121.2z"/>
	<rect x="20" y="0" fill-rule="evenodd" clip-rule="evenodd" fill="#E67816" width="101.8" height="89.7"/>
	<polygon fill-rule="evenodd" clip-rule="evenodd" fill="#FFFFFF" points="31.3,23 70.3,23 70.3,1.8 84.6,1.8 84.6,9.6 103.6,9.6 
		103.6,28.1 105.3,28.1 105.3,52.5 110.5,52.5 110.5,89.8 31.3,89.8 	"/>
	<rect x="95.2" y="54.4" fill-rule="evenodd" clip-rule="evenodd" fill="#E67816" width="13.3" height="35.4"/>
	<rect x="68" y="36.3" fill-rule="evenodd" clip-rule="evenodd" fill="#E67816" width="25.7" height="53.6"/>
	<polygon fill-rule="evenodd" clip-rule="evenodd" fill="#E67816" points="103.6,29.2 91,29.2 91,35.1 95.2,35.1 95.2,52.5 
		103.6,52.5 	"/>
	<rect x="33.2" y="24.6" fill-rule="evenodd" clip-rule="evenodd" fill="#E67816" width="20.2" height="65.2"/>
	<polygon fill-rule="evenodd" clip-rule="evenodd" fill="#E67816" points="84.6,11.5 84.6,35.1 89.9,35.1 89.9,28.1 101.9,28.1 
		101.9,11.5 	"/>
	<rect x="85.3" y="41.2" fill-rule="evenodd" clip-rule="evenodd" fill="#FFFFFF" width="4.6" height="4.3"/>
	<rect x="85.3" y="49" fill-rule="evenodd" clip-rule="evenodd" fill="#FFFFFF" width="4.6" height="4.4"/>
	<rect x="85.3" y="57" fill-rule="evenodd" clip-rule="evenodd" fill="#FFFFFF" width="4.6" height="4.2"/>
	<rect x="85.3" y="64.9" fill-rule="evenodd" clip-rule="evenodd" fill="#FFFFFF" width="4.6" height="4.2"/>
	<rect x="72" y="41.2" fill-rule="evenodd" clip-rule="evenodd" fill="#FFFFFF" width="4.4" height="4.3"/>
	<rect x="72" y="49" fill-rule="evenodd" clip-rule="evenodd" fill="#FFFFFF" width="4.4" height="4.4"/>
	<rect x="72" y="57" fill-rule="evenodd" clip-rule="evenodd" fill="#FFFFFF" width="4.4" height="4.2"/>
	<rect x="72" y="64.9" fill-rule="evenodd" clip-rule="evenodd" fill="#FFFFFF" width="4.4" height="4.2"/>
	<rect x="35.2" y="29.2" fill-rule="evenodd" clip-rule="evenodd" fill="#FFFFFF" width="16" height="2"/>
	<rect x="35.2" y="33.3" fill-rule="evenodd" clip-rule="evenodd" fill="#FFFFFF" width="16" height="2.2"/>
	<rect x="35.2" y="37.4" fill-rule="evenodd" clip-rule="evenodd" fill="#FFFFFF" width="16" height="2"/>
	<rect x="35.2" y="41.4" fill-rule="evenodd" clip-rule="evenodd" fill="#FFFFFF" width="16" height="2.1"/>
	<rect x="35.2" y="45.5" fill-rule="evenodd" clip-rule="evenodd" fill="#FFFFFF" width="16" height="2"/>
	<rect x="35.2" y="49.6" fill-rule="evenodd" clip-rule="evenodd" fill="#FFFFFF" width="16" height="2"/>
	<rect x="35.2" y="53.6" fill-rule="evenodd" clip-rule="evenodd" fill="#FFFFFF" width="16" height="2"/>
	<rect x="35.2" y="57.7" fill-rule="evenodd" clip-rule="evenodd" fill="#FFFFFF" width="16" height="1.8"/>
	<rect x="35.2" y="61.8" fill-rule="evenodd" clip-rule="evenodd" fill="#FFFFFF" width="16" height="2"/>
	<rect x="35.2" y="65.8" fill-rule="evenodd" clip-rule="evenodd" fill="#FFFFFF" width="16" height="1.9"/>
	<rect x="35.2" y="69.9" fill-rule="evenodd" clip-rule="evenodd" fill="#FFFFFF" width="16" height="2"/>
	<path fill="#333333" d="M0,73.4h17.6v5H7.9l9.6,6.4v5H0v-5h9.7L0,78.3V73.4L0,73.4z M0,69.8v-5.3h6.1v-5.8H0v-5.3h17.6v5.3h-7.1
		v5.8h7.1v5.3H0L0,69.8z M0,51.2v-16h4.3v5.4h13.2v5.3H4.3v5.4H0L0,51.2z M0,32.8V18.6h3.8v8.8h2.8v-8.2h3.6v8.2h3.5v-9.1h4v14.4H0
		L0,32.8z M0,15.5V6.8c0-1.9,0.5-3.3,1.4-4.3c0.9-0.9,2.3-1.4,4-1.4c1.8,0,3.2,0.5,4.2,1.6c1,1,1.5,2.6,1.5,4.7v2.9h6.5v5.3H0
		L0,15.5z M7.5,10.2V9c0-1-0.2-1.7-0.5-2.1C6.6,6.4,6.1,6.2,5.6,6.2c-0.6,0-1,0.2-1.4,0.5c-0.4,0.4-0.6,1-0.6,2v1.5H7.5z"/>
	<path fill="#333333" d="M131.7,13l-1.4,4.4c-1.3-0.3-2.3-0.8-3.1-1.4c-0.8-0.6-1.5-1.4-1.9-2.4c-0.4-0.9-0.6-2.1-0.6-3.6
		c0-1.8,0.3-3.2,0.8-4.3c0.5-1.1,1.4-2.1,2.8-2.9c1.3-0.8,3-1.2,5-1.2c2.7,0,4.8,0.7,6.3,2.1c1.5,1.4,2.2,3.5,2.2,6.1
		c0,2-0.4,3.7-1.3,4.8c-0.8,1.2-2.1,2-3.9,2.6l-1-4.4c0.5-0.2,0.9-0.3,1.1-0.5c0.4-0.3,0.7-0.6,0.9-1c0.2-0.4,0.3-0.9,0.3-1.4
		c0-1.1-0.5-2-1.4-2.6c-0.7-0.5-1.8-0.7-3.3-0.7c-1.8,0-3.1,0.3-3.8,0.8c-0.7,0.5-1,1.3-1,2.3c0,1,0.3,1.7,0.8,2.2
		C129.9,12.4,130.7,12.8,131.7,13L131.7,13z M140.2,31c-0.5,4.9-2.8,7.4-6.8,7.4c-4.1,0-6.3-2.5-6.8-7.4h-1.7v-4.6h1.8
		c0.4-4.9,2.7-7.4,6.7-7.4c4,0,6.2,2.5,6.8,7.4h1.3V31H140.2L140.2,31z M130.1,31c0.2,0.8,0.6,1.4,1.2,1.8c0.6,0.4,1.3,0.7,2.2,0.7
		c0.8,0,1.5-0.2,2.1-0.7c0.6-0.4,1.1-1.1,1.3-1.8H130.1L130.1,31z M130.1,26.4h6.8c-0.2-0.7-0.6-1.4-1.3-1.8
		c-0.6-0.5-1.4-0.7-2.2-0.7c-0.8,0-1.5,0.2-2.1,0.7C130.8,25,130.3,25.6,130.1,26.4L130.1,26.4z M141.5,40.8v13.5h-3.5v-8.4h-2.6
		v7.8h-3.4v-7.8h-3.3v8.7h-3.7V40.8H141.5L141.5,40.8z M141.5,57.2v8.4c0,1.8-0.4,3.2-1.3,4.1c-0.9,0.9-2.1,1.4-3.8,1.4
		c-1.7,0-3-0.5-3.9-1.5c-0.9-1-1.4-2.5-1.4-4.5v-2.7h-6.1v-5H141.5L141.5,57.2z M134.4,62.3v1.2c0,1,0.2,1.6,0.5,2
		c0.3,0.4,0.8,0.6,1.3,0.6c0.5,0,1-0.2,1.3-0.5c0.4-0.3,0.5-1,0.5-1.9v-1.4H134.4L134.4,62.3z M127.7,83.6v-5.7l-2.7-0.8V72
		l16.5,6.1v5.5l-16.5,6.1v-5.3L127.7,83.6L127.7,83.6z M131.3,82.6l5.9-1.8l-5.9-1.8V82.6z"/>
</g>
</svg>
