<?xml version="1.0" encoding="utf-8"?>
<!-- Generator: Adobe Illustrator 18.1.1, SVG Export Plug-In . SVG Version: 6.00 Build 0)  -->
<svg version="1.1" id="Слой_1" xmlns="http://www.w3.org/2000/svg" xmlns:xlink="http://www.w3.org/1999/xlink" x="0px" y="0px"
	 viewBox="0 0 276.5 272.4" enable-background="new 0 0 276.5 272.4" xml:space="preserve">
<g>
	<path fill-rule="evenodd" clip-rule="evenodd" fill="#E2322D" d="M80.9,140l-9.9-21.6L61.1,140H80.9L80.9,140z M0,22.9L55.1,0h47.1
		v36.3H84.4V141l22.8,11.1v14.6H34.7v-14.5L57.5,141V36.3H11.3v2.8c6.6,1.7,11.4,8.9,5.5,14.2c-5.4,4.8-15.7,1.9-15.7-5.8H4
		c0,5.6,7.2,8.3,10.9,4.4c4.6-4.8-0.8-11.2-6.2-11.2v-4.4H0V22.9L0,22.9z M80.6,36.3H61.3l9.6,21L80.6,36.3L80.6,36.3z M69.6,3.5
		v15.2H19.2L3.5,25.3v7.5h95.2V3.5H69.6L69.6,3.5z M66.1,15.2V3.5H55.9L27.7,15.2H66.1L66.1,15.2z M103.7,163.1v-8.8L82,143.7H60.1
		l-21.8,10.6v8.8H103.7L103.7,163.1z M68.8,114l-7.7,17.7V96.3L68.8,114L68.8,114z M80.9,131.7L73.2,114l7.7-17.7V131.7L80.9,131.7z
		 M80.9,87.9H61.1l9.8,21.6L80.9,87.9L80.9,87.9z M80.9,85l-9.9-18.8L61.1,85H80.9L80.9,85z M68.8,61.8l-7.7-17.7v35.4L68.8,61.8
		L68.8,61.8z M80.9,79.5V44.1l-7.7,17.7L80.9,79.5z"/>
	<path fill-rule="evenodd" clip-rule="evenodd" fill="#E2322D" d="M122.8,76.2h17.1v-13h-22.3c-0.7,0-1.4,0.2-2,0.6
		c-0.6,0.4-1.2,0.9-1.7,1.6c-0.5,0.6-0.9,1.4-1.2,2.1c-0.3,0.8-0.4,1.5-0.4,2.1v96.8h10.4V76.2L122.8,76.2z M168.8,166.5
		c1.4,0,2.6-0.7,3.7-2.2c1.1-1.5,1.6-2.9,1.6-4.3V69.7c0-0.6-0.1-1.4-0.4-2.1c-0.3-0.8-0.7-1.5-1.2-2.1c-0.5-0.6-1.1-1.2-1.7-1.6
		c-0.6-0.4-1.3-0.6-1.9-0.6h-17c-0.7,0-1.4,0.2-2,0.6c-0.6,0.4-1.2,0.9-1.7,1.6c-0.5,0.6-0.9,1.4-1.2,2.1c-0.3,0.8-0.4,1.5-0.4,2.1
		V160c0,1.4,0.5,2.8,1.6,4.3c1.1,1.5,2.3,2.2,3.7,2.2H168.8L168.8,166.5z M163.7,76.2v77.3h-6.8V76.2H163.7L163.7,76.2z M203,138
		c0.6,0,1.3-0.2,1.9-0.6c0.6-0.4,1.2-0.9,1.7-1.6c0.5-0.6,0.9-1.4,1.2-2.1c0.3-0.8,0.4-1.5,0.4-2.1V69.7c0-0.6-0.1-1.4-0.4-2.1
		c-0.3-0.8-0.7-1.5-1.2-2.1c-0.5-0.6-1.1-1.2-1.7-1.6c-0.6-0.4-1.3-0.6-1.9-0.6h-22.3v103.3h10.4V138H203L203,138z M197.9,76.2V125
		h-6.8V76.2H197.9L197.9,76.2z M237.1,166.5c1.4,0,2.6-0.7,3.7-2.2c1.1-1.5,1.6-2.9,1.6-4.3V69.7c0-0.6-0.1-1.4-0.4-2.1
		c-0.3-0.8-0.7-1.5-1.2-2.1c-0.5-0.6-1.1-1.2-1.7-1.6c-0.6-0.4-1.3-0.6-1.9-0.6h-17c-0.7,0-1.4,0.2-2,0.6c-0.6,0.4-1.2,0.9-1.7,1.6
		c-0.5,0.6-0.9,1.4-1.2,2.1c-0.3,0.8-0.4,1.5-0.4,2.1V160c0,1.4,0.5,2.8,1.6,4.3c1.1,1.5,2.3,2.2,3.7,2.2H237.1L237.1,166.5z
		 M232,76.2v77.3h-6.8V76.2H232L232,76.2z M271.3,189.9L34.9,190v-13l231.2-0.1v-10.4h-11.9c-1.4,0-2.6-0.7-3.7-2.2
		c-1.1-1.5-1.6-2.9-1.6-4.1V69.6c0-1.3,0.5-2.7,1.6-4.1c1.1-1.5,2.3-2.2,3.7-2.2h22.3v120.3c0,1.4-0.5,2.8-1.6,4.2
		C273.9,189.2,272.7,189.9,271.3,189.9L271.3,189.9z M266.2,76.2h-6.8v77.3h6.8V76.2z"/>
</g>
<path fill-rule="evenodd" clip-rule="evenodd" fill="#333333" d="M33.9,222.2l3.3,0.4c-0.4,2.3-1.3,4-2.8,5.3
	c-1.5,1.3-3.3,1.9-5.5,1.9c-2.7,0-4.9-0.9-6.5-2.6c-1.6-1.8-2.5-4.3-2.5-7.6c0-2.1,0.4-4,1.1-5.6c0.7-1.6,1.8-2.8,3.2-3.6
	c1.4-0.8,3-1.2,4.7-1.2c2.1,0,3.9,0.5,5.3,1.6c1.4,1.1,2.2,2.6,2.6,4.6l-3.3,0.5c-0.3-1.3-0.9-2.3-1.6-3c-0.8-0.7-1.7-1-2.9-1
	c-1.7,0-3.1,0.6-4.1,1.8c-1.1,1.2-1.6,3.1-1.6,5.7c0,2.7,0.5,4.6,1.5,5.8c1,1.2,2.3,1.8,4,1.8c1.3,0,2.4-0.4,3.3-1.2
	C33.2,225.1,33.7,223.9,33.9,222.2L33.9,222.2z M38.3,209.7h16.1v2.8H48v17h-3.3v-17h-6.4V209.7L38.3,209.7z M57.6,237v-27.3h3v2.6
	c0.7-1,1.5-1.8,2.4-2.3c0.9-0.5,2-0.8,3.3-0.8c1.7,0,3.2,0.4,4.5,1.3c1.3,0.9,2.3,2.1,2.9,3.7c0.7,1.6,1,3.3,1,5.2
	c0,2-0.4,3.8-1.1,5.5c-0.7,1.6-1.8,2.9-3.2,3.7c-1.4,0.9-2.8,1.3-4.4,1.3c-1.1,0-2.1-0.2-3-0.7c-0.9-0.5-1.6-1.1-2.2-1.8v9.6H57.6
	L57.6,237z M60.6,219.7c0,2.5,0.5,4.4,1.5,5.6c1,1.2,2.3,1.8,3.7,1.8c1.5,0,2.8-0.6,3.8-1.9c1.1-1.3,1.6-3.2,1.6-5.8
	c0-2.5-0.5-4.4-1.6-5.7c-1-1.3-2.3-1.9-3.7-1.9c-1.4,0-2.7,0.7-3.8,2C61.1,215.2,60.6,217.1,60.6,219.7L60.6,219.7z M77.5,219.6
	c0-3.7,1-6.4,3.1-8.1c1.7-1.5,3.8-2.2,6.2-2.2c2.7,0,4.9,0.9,6.7,2.7c1.7,1.8,2.6,4.2,2.6,7.4c0,2.5-0.4,4.5-1.1,6
	c-0.8,1.5-1.9,2.6-3.3,3.4c-1.5,0.8-3,1.2-4.8,1.2c-2.8,0-5-0.9-6.7-2.7C78.3,225.4,77.5,222.9,77.5,219.6L77.5,219.6z M80.9,219.6
	c0,2.5,0.6,4.4,1.7,5.7c1.1,1.3,2.5,1.9,4.2,1.9c1.7,0,3-0.6,4.2-1.9c1.1-1.3,1.7-3.2,1.7-5.8c0-2.4-0.6-4.3-1.7-5.6
	c-1.1-1.3-2.5-1.9-4.1-1.9c-1.7,0-3.1,0.6-4.2,1.9C81.5,215.1,80.9,217,80.9,219.6L80.9,219.6z M99.9,209.7h3.3v15.1l9.3-15.1h3.6
	v19.8h-3.3v-15l-9.3,15h-3.6V209.7L99.9,209.7z M119.4,209.7h16.1v2.8h-6.4v17h-3.3v-17h-6.4V209.7L119.4,209.7z M151.7,223.1
	l3.5,0.4c-0.5,2-1.6,3.6-3,4.7c-1.5,1.1-3.4,1.7-5.7,1.7c-2.9,0-5.2-0.9-6.9-2.7c-1.7-1.8-2.5-4.3-2.5-7.5c0-3.3,0.9-5.9,2.6-7.7
	c1.7-1.8,3.9-2.8,6.7-2.8c2.6,0,4.8,0.9,6.5,2.7c1.7,1.8,2.5,4.3,2.5,7.6c0,0.2,0,0.5,0,0.9h-14.7c0.1,2.2,0.7,3.8,1.8,5
	c1.1,1.2,2.5,1.7,4.1,1.7c1.2,0,2.3-0.3,3.1-1C150.6,225.5,151.2,224.5,151.7,223.1L151.7,223.1z M140.8,217.7h11
	c-0.1-1.7-0.6-2.9-1.3-3.7c-1.1-1.3-2.5-1.9-4.1-1.9c-1.5,0-2.8,0.5-3.9,1.5C141.4,214.6,140.9,215.9,140.8,217.7L140.8,217.7z
	 M159.8,209.7h15.6v19.8H172v-17h-8.9v9.8c0,2.3-0.1,3.8-0.2,4.5c-0.2,0.7-0.6,1.4-1.2,1.9c-0.7,0.5-1.6,0.8-2.9,0.8
	c-0.8,0-1.7-0.1-2.7-0.2v-2.8h1.5c0.7,0,1.2-0.1,1.5-0.2c0.3-0.1,0.5-0.4,0.6-0.7c0.1-0.3,0.1-1.3,0.1-3V209.7L159.8,209.7z
	 M180.3,209.7h3.3v7.7h4.2c2.8,0,4.9,0.5,6.4,1.6c1.5,1.1,2.2,2.6,2.2,4.4c0,1.6-0.6,3.1-1.9,4.2c-1.2,1.2-3.2,1.8-6,1.8h-8.4V209.7
	L180.3,209.7z M183.7,226.7h3.5c2.1,0,3.6-0.3,4.5-0.8c0.9-0.5,1.4-1.3,1.4-2.4c0-0.9-0.3-1.6-1-2.3c-0.7-0.7-2.2-1-4.4-1h-4V226.7
	L183.7,226.7z M200.2,209.7h3.4v8.2h9.3v-8.2h3.3v19.8h-3.3v-8.8h-9.3v8.8h-3.4V209.7L200.2,209.7z M234.2,227
	c-1.2,1.1-2.4,1.8-3.6,2.2c-1.1,0.4-2.4,0.6-3.7,0.6c-2.2,0-3.8-0.5-5-1.6c-1.2-1.1-1.7-2.4-1.7-4.1c0-1,0.2-1.9,0.7-2.7
	c0.4-0.8,1-1.4,1.7-1.9c0.7-0.5,1.5-0.9,2.4-1.1c0.7-0.2,1.6-0.3,3-0.5c2.7-0.3,4.7-0.7,6-1.2c0-0.5,0-0.7,0-0.9
	c0-1.4-0.3-2.3-1-2.9c-0.9-0.8-2.1-1.1-3.8-1.1c-1.6,0-2.7,0.3-3.5,0.8c-0.8,0.6-1.3,1.5-1.7,2.9l-3.3-0.5c0.3-1.4,0.8-2.5,1.5-3.4
	c0.7-0.9,1.7-1.5,3-2c1.3-0.5,2.8-0.7,4.5-0.7c1.7,0,3.1,0.2,4.1,0.6c1.1,0.4,1.8,0.9,2.3,1.5c0.5,0.6,0.8,1.4,1,2.3
	c0.1,0.6,0.2,1.6,0.2,3.1v4.5c0,3.1,0.1,5.1,0.2,5.9c0.1,0.8,0.4,1.6,0.8,2.4h-3.5C234.5,228.7,234.2,227.9,234.2,227L234.2,227z
	 M233.9,219.5c-1.2,0.5-3,0.9-5.5,1.3c-1.4,0.2-2.4,0.4-2.9,0.7c-0.6,0.2-1,0.6-1.3,1.1c-0.3,0.5-0.5,1-0.5,1.6c0,0.9,0.3,1.6,1,2.2
	c0.7,0.6,1.7,0.9,3,0.9c1.3,0,2.4-0.3,3.4-0.8c1-0.6,1.7-1.3,2.2-2.3c0.4-0.8,0.5-1.9,0.5-3.3V219.5L233.9,219.5z M258,209.7v19.8
	h-3.3v-7.7h-1.9c-1.2,0-2.1,0.2-2.6,0.5c-0.6,0.3-1.4,1.3-2.5,2.9l-2.9,4.3h-4.1l3.6-5.3c1.1-1.6,2.2-2.5,3.3-2.7
	c-1.9-0.3-3.3-1-4.3-2.1c-0.9-1.1-1.4-2.4-1.4-3.8c0-1.7,0.6-3.1,1.8-4.2c1.2-1.1,3-1.6,5.3-1.6H258L258,209.7z M254.7,212.4h-4.8
	c-2,0-3.3,0.3-3.9,0.9c-0.6,0.6-0.9,1.3-0.9,2.2c0,1.2,0.4,2,1.3,2.6c0.9,0.6,2.3,0.8,4.5,0.8h3.7V212.4L254.7,212.4z M57.4,252.2
	h3.3v8.5c1.1,0,1.8-0.2,2.2-0.6c0.4-0.4,1.1-1.6,1.9-3.6c0.7-1.6,1.2-2.6,1.6-3.1c0.4-0.5,0.9-0.8,1.4-1c0.5-0.2,1.4-0.3,2.6-0.3
	h0.7v2.8l-0.9,0c-0.9,0-1.4,0.1-1.7,0.4c-0.3,0.3-0.7,1.1-1.2,2.4c-0.5,1.3-1,2.2-1.4,2.7c-0.4,0.5-1.1,1-1.9,1.4
	c1.4,0.4,2.9,1.7,4.2,4l3.7,6.1h-3.7l-3.6-6.1c-0.7-1.2-1.4-2-1.9-2.4c-0.5-0.4-1.2-0.6-2-0.6v9.1h-3.3V252.2L57.4,252.2z
	 M73.3,262.1c0-3.7,1-6.4,3.1-8.1c1.7-1.5,3.8-2.2,6.2-2.2c2.7,0,4.9,0.9,6.7,2.7c1.7,1.8,2.6,4.2,2.6,7.4c0,2.5-0.4,4.5-1.1,6
	c-0.8,1.5-1.9,2.6-3.3,3.4c-1.5,0.8-3,1.2-4.8,1.2c-2.8,0-5-0.9-6.7-2.7C74.1,268,73.3,265.4,73.3,262.1L73.3,262.1z M76.7,262.1
	c0,2.5,0.6,4.4,1.7,5.7c1.1,1.3,2.5,1.9,4.2,1.9c1.7,0,3-0.6,4.2-1.9c1.1-1.3,1.7-3.2,1.7-5.8c0-2.4-0.6-4.3-1.7-5.6
	c-1.1-1.3-2.5-1.9-4.1-1.9c-1.7,0-3.1,0.6-4.2,1.9C77.3,257.7,76.7,259.6,76.7,262.1L76.7,262.1z M95.8,252.2h5.2l5.2,15.8l5.8-15.8
	h4.8V272h-3.3v-15.9l-5.8,15.9h-3l-5.5-16.7V272h-3.3V252.2L95.8,252.2z M121.9,252.2h15.6V272h-3.4v-17h-8.9v17h-3.4V252.2
	L121.9,252.2z M155.4,269.5c-1.2,1.1-2.4,1.8-3.6,2.2c-1.1,0.4-2.4,0.6-3.7,0.6c-2.2,0-3.8-0.5-5-1.6c-1.2-1.1-1.7-2.4-1.7-4.1
	c0-1,0.2-1.9,0.7-2.7c0.4-0.8,1-1.4,1.7-1.9c0.7-0.5,1.5-0.9,2.4-1.1c0.7-0.2,1.6-0.3,3-0.5c2.7-0.3,4.7-0.7,6-1.2
	c0-0.5,0-0.7,0-0.9c0-1.4-0.3-2.3-1-2.9c-0.9-0.8-2.1-1.1-3.8-1.1c-1.6,0-2.7,0.3-3.5,0.8c-0.7,0.6-1.3,1.5-1.7,2.9l-3.3-0.5
	c0.3-1.4,0.8-2.5,1.5-3.4c0.7-0.9,1.7-1.5,3-2c1.3-0.5,2.8-0.7,4.5-0.7c1.7,0,3.1,0.2,4.1,0.6c1.1,0.4,1.8,0.9,2.3,1.5
	c0.5,0.6,0.8,1.4,1,2.3c0.1,0.6,0.2,1.6,0.2,3.1v4.5c0,3.1,0.1,5.1,0.2,5.9c0.1,0.8,0.4,1.6,0.8,2.4h-3.5
	C155.8,271.3,155.5,270.5,155.4,269.5L155.4,269.5z M155.2,262.1c-1.2,0.5-3,0.9-5.5,1.3c-1.4,0.2-2.4,0.4-2.9,0.7
	c-0.6,0.2-1,0.6-1.3,1.1c-0.3,0.5-0.5,1-0.5,1.6c0,0.9,0.3,1.6,1,2.2c0.7,0.6,1.7,0.9,3,0.9c1.3,0,2.4-0.3,3.4-0.8
	c1-0.6,1.7-1.3,2.2-2.3c0.4-0.8,0.5-1.9,0.5-3.3V262.1L155.2,262.1z M163.8,252.2h3.4v8.2h9.3v-8.2h3.3V272h-3.3v-8.8h-9.3v8.8h-3.4
	V252.2L163.8,252.2z M184.8,252.2h3.3v15.1l9.3-15.1h3.6V272h-3.3v-15l-9.3,15h-3.6V252.2L184.8,252.2z M221.6,252.2V272h-3.3v-7.7
	h-1.9c-1.2,0-2.1,0.2-2.6,0.5c-0.6,0.3-1.4,1.3-2.5,2.9l-2.9,4.3h-4.1l3.6-5.3c1.1-1.6,2.2-2.5,3.3-2.7c-1.9-0.3-3.3-1-4.3-2.1
	c-0.9-1.1-1.4-2.4-1.4-3.8c0-1.7,0.6-3.1,1.8-4.2c1.2-1.1,3-1.6,5.3-1.6H221.6L221.6,252.2z M218.3,255h-4.8c-2,0-3.3,0.3-3.9,0.9
	c-0.6,0.6-0.9,1.3-0.9,2.2c0,1.2,0.4,2,1.3,2.6c0.9,0.6,2.3,0.8,4.5,0.8h3.7V255z"/>
</svg>
